<svg width="37" height="36" viewBox="0 0 37 36" fill="none" xmlns="http://www.w3.org/2000/svg">
<g clip-path="url(#clip0_125_4998)" filter="url(#filter0_d_125_4998)">
<rect width="27.8325" height="26.5" transform="translate(4.80762 0.719971)" fill="#F2C4C7"/>
<path d="M17.5461 27.22C15.1491 27.22 13.1973 25.3628 13.1973 23.0793C13.1973 22.6222 13.5869 22.2512 14.067 22.2512C14.5471 22.2512 14.9368 22.6222 14.9368 23.0793C14.9368 24.4497 16.1081 25.5637 17.5461 25.5637C18.9841 25.5637 20.1554 24.4497 20.1554 23.0793C20.1554 22.6222 20.545 22.2512 21.0252 22.2512C21.5053 22.2512 21.8949 22.6222 21.8949 23.0793C21.8949 25.3628 19.9433 27.22 17.5461 27.22Z" fill="#CC054D" fill-opacity="0.99"/>
<path d="M27.1642 23.875H8.02938C6.91032 23.875 6 23.0083 6 21.9428C6 21.3773 6.25864 20.8419 6.70966 20.4741C6.73875 20.4499 6.76996 20.4278 6.80245 20.4078C8.50482 18.9934 9.47906 16.9585 9.47906 14.8097V11.7291C9.47906 7.46717 13.1216 4 17.5968 4C17.7824 4 17.9831 4.00323 18.1687 4.03316C18.6428 4.10817 18.963 4.53557 18.884 4.98603C18.8053 5.43648 18.3483 5.74137 17.8833 5.66616C17.7905 5.6518 17.6885 5.65625 17.5968 5.65625C14.0808 5.65625 11.2186 8.38021 11.2186 11.7291V14.8097C11.2186 17.4775 9.99039 20.0017 7.85207 21.7339C7.83466 21.7473 7.81959 21.7594 7.8009 21.7715C7.76969 21.8091 7.73953 21.8666 7.73953 21.9428C7.73953 22.0928 7.87182 22.2188 8.02938 22.2188H27.1642C27.322 22.2188 27.4543 22.0928 27.4543 21.9428C27.4543 21.8653 27.4241 21.8091 27.3917 21.7715C27.3742 21.7594 27.3592 21.7473 27.3418 21.7339C25.2022 20.0004 23.9752 17.4775 23.9752 14.8097V13.6063C23.9752 13.1492 24.3649 12.7782 24.845 12.7782C25.3251 12.7782 25.7148 13.1492 25.7148 13.6063V14.8097C25.7148 16.9597 26.6901 18.9956 28.3948 20.4113C28.426 20.4311 28.4561 20.4521 28.484 20.4754C28.9352 20.8419 29.1938 21.3773 29.1938 21.9428C29.1938 23.0083 28.2835 23.875 27.1642 23.875Z" fill="#CC054D" fill-opacity="0.99"/>
<path d="M25.6637 11.7616C22.4665 11.7616 19.8652 9.28508 19.8652 6.24087C19.8652 3.19666 22.4665 0.719971 25.6637 0.719971C28.861 0.719971 31.462 3.19666 31.462 6.24087C31.462 9.28508 28.861 11.7616 25.6637 11.7616ZM25.6637 2.37622C23.4254 2.37622 21.6048 4.1097 21.6048 6.24087C21.6048 8.37184 23.4254 10.1053 25.6637 10.1053C27.9019 10.1053 29.7225 8.37184 29.7225 6.24087C29.7225 4.1097 27.9019 2.37622 25.6637 2.37622Z" fill="#9E033B" fill-opacity="0.99"/>
</g>
<defs>
<filter id="filter0_d_125_4998" x="0.807617" y="0.719971" width="35.832" height="34.5" filterUnits="userSpaceOnUse" color-interpolation-filters="sRGB">
<feFlood flood-opacity="0" result="BackgroundImageFix"/>
<feColorMatrix in="SourceAlpha" type="matrix" values="0 0 0 0 0 0 0 0 0 0 0 0 0 0 0 0 0 0 127 0" result="hardAlpha"/>
<feOffset dy="4"/>
<feGaussianBlur stdDeviation="2"/>
<feComposite in2="hardAlpha" operator="out"/>
<feColorMatrix type="matrix" values="0 0 0 0 0 0 0 0 0 0 0 0 0 0 0 0 0 0 0.25 0"/>
<feBlend mode="normal" in2="BackgroundImageFix" result="effect1_dropShadow_125_4998"/>
<feBlend mode="normal" in="SourceGraphic" in2="effect1_dropShadow_125_4998" result="shape"/>
</filter>
<clipPath id="clip0_125_4998">
<rect width="27.8325" height="26.5" fill="white" transform="translate(4.80762 0.719971)"/>
</clipPath>
</defs>
</svg>
